HIERARCHY
ROOT Hips
{
	OFFSET -3.958830 18.904000 13.208200
	CHANNELS 6 Xposition Yposition Zposition Zrotation Yrotation Xrotation 
	JOINT LHipJoint
	{
		OFFSET 0.000000 0.000000 0.000000
		CHANNELS 3 Zrotation Yrotation Xrotation
		JOINT LeftUpLeg
		{
			OFFSET 1.800000 -1.400000 0.085000
			CHANNELS 3 Zrotation Yrotation Xrotation
			JOINT LeftLeg
			{
				OFFSET 2.215000 -6.000000 0.000000
				CHANNELS 3 Zrotation Yrotation Xrotation
				JOINT LeftFoot
				{
					OFFSET 2.500000 -6.900000 0.000000
					CHANNELS 3 Zrotation Yrotation Xrotation
					JOINT LeftToeBase
					{
						OFFSET 0.200000 -0.500000 1.950000
						CHANNELS 3 Zrotation Yrotation Xrotation
						End Site
						{
							OFFSET 0.000000 0.000000 0.000000
						}
					}
				}
			}
		}
	}
	JOINT RHipJoint
	{
		OFFSET 0.000000 0.000000 0.000000
		CHANNELS 3 Zrotation Yrotation Xrotation
		JOINT RightUpLeg
		{
			OFFSET -1.800000 -1.400000 0.085000
			CHANNELS 3 Zrotation Yrotation Xrotation
			JOINT RightLeg
			{
				OFFSET -2.215000 -6.000000 0.000000
				CHANNELS 3 Zrotation Yrotation Xrotation
				JOINT RightFoot
				{
					OFFSET -2.500000 -6.900000 0.000000
					CHANNELS 3 Zrotation Yrotation Xrotation
					JOINT RightToeBase
					{
						OFFSET -0.200000 -0.500000 1.950000
						CHANNELS 3 Zrotation Yrotation Xrotation
						End Site
						{
							OFFSET 0.000000 0.000000 0.000000
						}
					}
				}
			}
		}
	}
	JOINT LowerBack
	{
		OFFSET 0.000000 0.000000 0.000000
		CHANNELS 3 Zrotation Yrotation Xrotation
		JOINT Spine
		{
			OFFSET -0.087000 1.940000 -0.288900
			CHANNELS 3 Zrotation Yrotation Xrotation
			JOINT Spine1
			{
				OFFSET 0.000000 1.950000 0.060000
				CHANNELS 3 Zrotation Yrotation Xrotation
				JOINT Neck
				{
					OFFSET 0.000000 0.000000 0.000000
					CHANNELS 3 Zrotation Yrotation Xrotation
					JOINT Neck1
					{
						OFFSET 0.000000 1.600000 0.340000
						CHANNELS 3 Zrotation Yrotation Xrotation
						JOINT Head
						{
							OFFSET 0.000000 1.667000 -0.240000
							CHANNELS 3 Zrotation Yrotation Xrotation
							End Site
							{
								OFFSET 0.000000 0.000000 0.000000
							}
						}
					}
				}
				JOINT LeftShoulder
				{
					OFFSET 0.000000 0.000000 0.000000
					CHANNELS 3 Zrotation Yrotation Xrotation
					JOINT LeftArm
					{
						OFFSET 2.700000 1.550000 -0.730000
						CHANNELS 3 Zrotation Yrotation Xrotation
						JOINT LeftForeArm
						{
							OFFSET 5.450000 0.000000 0.000000
							CHANNELS 3 Zrotation Yrotation Xrotation
							JOINT LeftHand
							{
								OFFSET 3.450000 0.000000 0.000000
								CHANNELS 3 Zrotation Yrotation Xrotation
								JOINT LeftHandIndex1
								{
									OFFSET 0.750000 0.000000 0.000000
									CHANNELS 3 Zrotation Yrotation Xrotation
									End Site
									{
										OFFSET 0.000000 0.000000 0.000000
									}
								}
							}
						}
					}
				}
				JOINT RightShoulder
				{
					OFFSET 0.000000 0.000000 0.000000
					CHANNELS 3 Zrotation Yrotation Xrotation
					JOINT RightArm
					{
						OFFSET -2.700000 1.550000 -0.730000
						CHANNELS 3 Zrotation Yrotation Xrotation
						JOINT RightForeArm
						{
							OFFSET -5.450000 0.000000 0.000000
							CHANNELS 3 Zrotation Yrotation Xrotation
							JOINT RightHand
							{
								OFFSET -3.450000 0.000000 0.000000
								CHANNELS 3 Zrotation Yrotation Xrotation
								JOINT RightHandIndex1
								{
									OFFSET -0.750000 0.000000 0.000000
									CHANNELS 3 Zrotation Yrotation Xrotation
									End Site
									{
										OFFSET 0.000000 0.000000 0.000000
									}
								}
							}
						}
					}
				}
			}
		}
	}
}
MOTION
Frames: 8
Frame Time: 0.016667
2.292770 19.420390 -0.031050 -9.909911 -32.086343 -16.432498 -14.271739 12.033659 0.965563 -9.206014 10.288299 -23.039139 13.293502 7.311858 36.267893 -0.581320 5.572578 2.572994 0.648770 0.135950 0.288070 18.943411 -12.317864 5.510174 -10.088094 26.932439 23.540740 47.340882 -15.595873 23.675833 -2.110061 -10.320841 1.271804 0.084770 0.216340 0.135760 -7.192932 6.008701 -7.391297 45.747258 10.320808 28.397820 -9.275274 16.846022 26.091489 12.210945 -11.688366 -15.587593 -17.034726 3.722593 53.798717 4.820250 -9.830470 -25.068610 1.583992 -5.476678 6.139226 -33.794869 23.164408 -9.981264 -1.381670 -7.451678 -2.205638 -3.614005 2.450403 0.987820 -0.158430 -0.019130 0.284170 -22.826805 29.227035 -3.110215 -16.341547 37.941561 -18.730284 -49.747135 26.731441 -13.409075 2.610905 -1.248445 -0.266250 0.501230 0.129420 -0.286090 
2.409910 19.551900 -0.080140 -8.887852 -29.952899 -17.990813 -14.352571 12.080421 1.051266 -13.839683 10.602395 -25.879611 15.705804 6.981832 39.276400 -0.330796 5.987375 2.382863 0.775340 0.318700 0.381080 18.919447 -11.908083 5.627248 -7.822082 28.813112 26.073764 50.901823 -16.066960 24.102793 -2.256769 -10.536358 1.179202 0.140090 0.107880 0.166260 -6.797559 5.349546 -7.613851 45.416033 8.731155 32.451158 -11.598537 17.550238 25.644314 13.550306 -12.382530 -15.605263 -18.055016 4.496362 51.746166 3.493450 -9.396280 -24.905420 1.242904 -4.214985 4.984825 -35.902186 20.144401 -9.050297 -0.915514 -4.850388 -1.943355 -3.585835 2.570691 0.897770 -0.197290 0.047990 0.305680 -25.645898 29.691406 -5.589294 -12.902116 33.467622 -17.482846 -48.386860 24.686041 -12.517710 2.730389 -1.399164 -0.130320 0.401460 0.014980 -0.244880 
2.654990 19.732440 -0.221380 -8.321882 -24.199291 -20.533500 -14.587416 11.945454 1.464280 -23.627709 9.487145 -29.606935 24.295853 3.269154 39.208254 -0.137202 6.384465 2.310434 0.673570 0.231730 0.292600 18.921580 -10.660008 5.837476 -1.181807 31.166620 31.317979 60.078671 -16.361630 22.967443 -2.422460 -10.698790 1.199562 0.080580 0.165160 0.091200 -5.981354 3.506812 -8.174467 46.209217 3.211667 40.315105 -19.472782 17.541247 24.534604 16.295666 -13.864554 -18.465735 -24.222974 7.527681 50.508689 2.846900 -10.696360 -22.266960 1.226397 -2.860802 4.453114 -41.922534 19.109892 -12.320438 4.855881 -14.645581 -2.384254 -3.416620 2.834949 0.895230 -0.194140 0.017670 0.317400 -31.057616 31.472088 -8.384497 -8.919790 21.327344 -18.017824 -47.051951 23.330284 -11.283988 2.873376 -1.399728 -0.179520 0.485970 0.051810 -0.220310 
2.897510 19.836770 -0.387030 -7.179918 -20.551871 -21.128559 -14.792997 11.577081 1.849129 -34.114310 7.824562 -36.260305 31.870928 -0.042328 37.537911 -0.184020 7.169796 2.068699 0.401970 -0.175380 0.184700 18.958131 -9.369446 6.249581 2.899711 34.955976 33.862812 71.966404 -15.093893 20.049567 -2.338273 -10.594453 1.192659 -0.036380 0.374560 0.063070 -5.553935 2.332434 -8.623758 43.310244 -0.562818 46.544869 -25.388960 17.399622 21.144786 17.752713 -14.972863 -19.799092 -29.897194 11.995816 47.572584 2.212870 -11.245980 -17.099960 -0.766888 1.282481 1.903399 -47.835177 18.619323 -13.645527 4.277765 -16.460861 -2.733136 -3.607984 2.598850 0.958260 -0.073650 -0.157240 0.183220 -32.632130 30.370267 -7.074192 -8.416445 15.207315 -16.877406 -40.957774 17.425442 -7.938901 2.720595 -1.324099 -0.406990 0.612200 0.304350 -0.295220 
3.057890 19.891200 -0.589390 -0.062100 -22.215028 -22.828125 -15.023022 11.931316 1.809921 -42.991526 6.232425 -47.680524 32.460976 -1.026884 40.615314 -0.193438 7.721460 1.821712 0.315020 -0.305580 0.148720 18.782952 -8.357709 6.718656 0.310249 41.346278 34.567996 80.862452 -15.601923 20.942575 -2.317723 -10.549593 1.161695 -0.060710 0.395730 0.011410 -4.915242 1.144885 -8.756035 29.504751 2.228178 56.510557 -28.639327 20.770917 14.610688 17.537897 -14.894898 -20.519232 -33.194495 14.754006 43.400570 4.011870 -10.379410 -16.469870 -3.239810 9.235258 -3.515468 -51.416374 18.077194 -15.868220 2.665330 -20.418543 -3.059658 -3.545713 2.549289 1.028850 -0.085490 -0.201170 0.127920 -32.870650 28.830012 -2.318919 -8.231227 10.012425 -17.365465 -36.689497 11.231895 -5.512051 2.666184 -1.339448 -0.512400 0.644320 0.380160 -0.348220 
3.214590 19.953870 -0.732380 3.143374 -16.102974 -21.217230 -15.208559 11.140972 2.769841 -54.420553 -0.083014 -54.093925 35.805056 -4.578318 39.082444 -0.396182 8.002357 1.644289 0.235730 -0.489500 0.219470 18.774957 -7.295276 6.756127 -1.755666 41.791570 32.644932 87.695464 -12.797879 17.271487 -2.225765 -9.979180 1.250151 -0.097880 0.354800 0.004160 -4.424223 0.086271 -9.262288 20.851379 4.361442 59.355715 -28.162327 19.245878 12.778745 16.820372 -12.586731 -21.313701 -34.322336 15.840058 44.451028 4.810810 -10.067230 -19.500820 -5.909144 12.490578 -5.955930 -53.554732 15.602692 -16.079219 -2.392430 -19.940274 -2.898245 -3.600751 2.238338 1.276940 -0.136770 -0.158270 0.002150 -30.269992 22.324303 11.580259 -7.724157 8.098595 -19.608569 -33.245786 5.950073 -3.744124 2.858993 -1.329089 -0.674700 0.712150 0.505820 -0.489890 
3.401800 20.010880 -0.873210 5.060572 -11.493051 -19.315542 -15.194047 10.031575 3.701808 -63.116186 -8.005618 -59.842714 37.660735 -8.302854 39.529227 -0.490846 8.443297 1.428215 0.155500 -0.614960 0.231060 18.922932 -6.767627 6.737684 -5.844833 42.101883 29.007320 92.780564 -10.201419 14.229402 -2.101055 -9.426639 1.349310 -0.119350 0.350540 -0.014360 -4.594968 0.530815 -9.690549 17.936969 4.874658 62.172338 -30.127071 16.331166 10.857549 16.611407 -12.126506 -20.673830 -33.788190 16.728944 44.127023 5.849570 -8.962370 -22.264730 -7.261540 13.589609 -6.938128 -54.679126 15.920910 -17.901845 -10.273415 -21.955606 -2.374003 -3.579315 2.089914 1.425740 -0.164140 -0.143940 -0.089410 -28.083141 18.450580 17.081389 -0.613062 8.415195 -19.759159 -34.043899 5.931293 -3.642121 2.842190 -1.305249 -0.794370 0.769180 0.604870 -0.565980 
3.514630 19.998590 -0.986450 7.809254 -5.304406 -15.505145 -15.368620 8.867767 5.058708 -70.989398 -18.978294 -62.948889 38.374728 -11.556380 41.157305 -0.316765 8.898722 1.271746 0.150870 -0.610860 0.230100 18.879338 -6.084936 6.357868 -12.329953 40.088257 23.761552 95.612452 -7.750265 10.730582 -1.999326 -8.862970 1.499350 -0.147360 0.328860 -0.011170 -4.191242 0.150366 -10.215396 12.055855 8.595157 61.153529 -25.632562 15.979543 10.800752 14.580224 -12.311256 -19.601392 -31.683788 15.770909 45.611764 6.788480 -7.998280 -22.101790 -8.057771 10.108445 -4.945695 -58.488455 15.564249 -20.013447 -13.097045 -22.434806 -2.214540 -3.547631 2.118716 1.415090 -0.183770 -0.121470 -0.082710 -22.292152 17.870845 16.242978 4.661829 2.599699 -16.917990 -34.989123 11.254234 -4.205691 2.613199 -1.317186 -0.762900 0.733390 0.578970 -0.554520 
